<?xml version="1.0" encoding="utf-8"?>
<!-- Generator: Adobe Illustrator 15.1.0, SVG Export Plug-In . SVG Version: 6.00 Build 0)  -->
<!DOCTYPE svg PUBLIC "-//W3C//DTD SVG 1.1//EN" "http://www.w3.org/Graphics/SVG/1.1/DTD/svg11.dtd">
<svg version="1.1" id="Layer_1" xmlns="http://www.w3.org/2000/svg" xmlns:xlink="http://www.w3.org/1999/xlink" x="0px" y="0px"
	 width="155.567px" height="83.905px" viewBox="0 0 155.567 83.905" enable-background="new 0 0 155.567 83.905"
	 xml:space="preserve">
<g id="drills">
	<circle id="gnd" fill="none" stroke="#000000" stroke-width="0.001" stroke-miterlimit="10" cx="2.92" cy="23.953" r="2.92"/>
	<circle id="vcc" fill="none" stroke="#000000" stroke-width="0.001" stroke-miterlimit="10" cx="2.92" cy="59.953" r="2.92"/>
	<circle fill="none" stroke="#000000" stroke-width="0.001" stroke-miterlimit="10" cx="46.121" cy="8.178" r="4.677"/>
	<circle fill="none" stroke="#000000" stroke-width="0.001" stroke-miterlimit="10" cx="46.121" cy="75.728" r="4.677"/>
	<circle fill="none" stroke="#000000" stroke-width="0.001" stroke-miterlimit="10" cx="109.135" cy="8.178" r="4.677"/>
	<circle fill="none" stroke="#000000" stroke-width="0.001" stroke-miterlimit="10" cx="109.135" cy="75.728" r="4.677"/>
</g>
<g id="outline">
	<g>
		
			<polyline fill="none" stroke="#000000" stroke-width="0.72" stroke-linecap="round" stroke-linejoin="round" stroke-miterlimit="10" points="
			14.15,52.992 14.09,52.572 13.85,52.212 13.49,51.972 13.07,51.913 		"/>
		
			<polyline fill="none" stroke="#000000" stroke-width="0.72" stroke-linecap="round" stroke-linejoin="round" stroke-miterlimit="10" points="
			5.33,51.252 5.45,51.732 5.81,52.092 6.35,52.272 		"/>
		
			<line fill="none" stroke="#000000" stroke-width="0.72" stroke-linecap="round" stroke-linejoin="round" stroke-miterlimit="10" x1="4.43" y1="48.732" x2="5.33" y2="48.732"/>
		
			<line fill="none" stroke="#000000" stroke-width="0.72" stroke-linecap="round" stroke-linejoin="round" stroke-miterlimit="10" x1="6.35" y1="52.272" x2="13.07" y2="51.913"/>
		
			<polyline fill="none" stroke="#000000" stroke-width="0.72" stroke-linecap="round" stroke-linejoin="round" stroke-miterlimit="10" points="
			13.07,67.992 13.49,67.933 13.85,67.692 14.09,67.333 14.15,66.913 		"/>
		
			<polyline fill="none" stroke="#000000" stroke-width="0.72" stroke-linecap="round" stroke-linejoin="round" stroke-miterlimit="10" points="
			6.35,67.632 5.81,67.752 5.45,68.172 5.33,68.652 		"/>
		
			<line fill="none" stroke="#000000" stroke-width="0.72" stroke-linecap="round" stroke-linejoin="round" stroke-miterlimit="10" x1="4.43" y1="71.172" x2="5.33" y2="71.172"/>
		
			<line fill="none" stroke="#000000" stroke-width="0.72" stroke-linecap="round" stroke-linejoin="round" stroke-miterlimit="10" x1="6.35" y1="67.632" x2="13.07" y2="67.992"/>
		
			<line fill="none" stroke="#000000" stroke-width="0.72" stroke-linecap="round" stroke-linejoin="round" stroke-miterlimit="10" x1="14.15" y1="52.992" x2="14.15" y2="66.913"/>
		
			<line fill="none" stroke="#000000" stroke-width="0.72" stroke-linecap="round" stroke-linejoin="round" stroke-miterlimit="10" x1="5.33" y1="48.732" x2="5.33" y2="71.172"/>
		
			<line fill="none" stroke="#000000" stroke-width="0.72" stroke-linecap="round" stroke-linejoin="round" stroke-miterlimit="10" x1="4.43" y1="48.732" x2="4.43" y2="71.172"/>
	</g>
	<g>
		
			<polyline fill="none" stroke="#000000" stroke-width="0.72" stroke-linecap="round" stroke-linejoin="round" stroke-miterlimit="10" points="
			13.31,35.172 13.91,35.052 14.39,34.752 14.81,34.333 15.05,33.853 15.11,33.252 15.05,32.652 14.81,32.172 14.39,31.752 
			13.91,31.453 13.31,31.333 		"/>
		
			<polyline fill="none" stroke="#000000" stroke-width="0.72" stroke-linecap="round" stroke-linejoin="round" stroke-miterlimit="10" points="
			13.31,34.572 13.79,34.453 14.209,34.152 14.45,33.732 14.57,33.252 14.45,32.772 14.209,32.353 13.79,32.052 13.31,31.933 		"/>
		
			<line fill="none" stroke="#000000" stroke-width="0.72" stroke-linecap="round" stroke-linejoin="round" stroke-miterlimit="10" x1="13.31" y1="28.572" x2="13.31" y2="35.172"/>
		
			<line fill="none" stroke="#000000" stroke-width="0.72" stroke-linecap="round" stroke-linejoin="round" stroke-miterlimit="10" x1="6.11" y1="14.953" x2="8.57" y2="14.953"/>
		
			<polyline fill="none" stroke="#000000" stroke-width="0.72" stroke-linecap="round" stroke-linejoin="round" stroke-miterlimit="10" points="
			9.169,33.492 9.11,33.252 8.87,33.012 8.57,32.953 		"/>
		
			<line fill="none" stroke="#000000" stroke-width="0.72" stroke-linecap="round" stroke-linejoin="round" stroke-miterlimit="10" x1="6.11" y1="32.953" x2="8.57" y2="32.953"/>
		
			<line fill="none" stroke="#000000" stroke-width="0.72" stroke-linecap="round" stroke-linejoin="round" stroke-miterlimit="10" x1="9.169" y1="33.492" x2="9.169" y2="33.732"/>
		
			<polyline fill="none" stroke="#000000" stroke-width="0.72" stroke-linecap="round" stroke-linejoin="round" stroke-miterlimit="10" points="
			4.31,16.752 4.31,31.152 4.43,31.692 4.669,32.232 5.089,32.592 5.57,32.833 6.11,32.953 		"/>
		
			<line fill="none" stroke="#000000" stroke-width="0.72" stroke-linecap="round" stroke-linejoin="round" stroke-miterlimit="10" x1="9.839" y1="14.953" x2="9.839" y2="33.58"/>
		
			<polyline fill="none" stroke="#000000" stroke-width="0.72" stroke-linecap="round" stroke-linejoin="round" stroke-miterlimit="10" points="
			9.169,33.732 9.29,34.272 9.589,34.752 10.07,35.052 10.61,35.172 		"/>
		
			<polyline fill="none" stroke="#000000" stroke-width="0.72" stroke-linecap="round" stroke-linejoin="round" stroke-miterlimit="10" points="
			13.31,16.572 13.91,16.453 14.39,16.152 14.81,15.732 15.05,15.192 15.11,14.652 15.05,14.052 14.81,13.572 14.39,13.152 
			13.91,12.853 13.31,12.732 13.31,19.272 		"/>
		
			<polyline fill="none" stroke="#000000" stroke-width="0.72" stroke-linecap="round" stroke-linejoin="round" stroke-miterlimit="10" points="
			13.31,15.972 13.79,15.853 14.209,15.552 14.45,15.132 14.57,14.652 14.45,14.172 14.209,13.752 13.79,13.453 13.31,13.272 		"/>
		
			<polyline fill="none" stroke="#000000" stroke-width="0.72" stroke-linecap="round" stroke-linejoin="round" stroke-miterlimit="10" points="
			6.11,14.953 5.57,15.012 5.089,15.312 4.669,15.672 4.43,16.212 4.31,16.752 		"/>
		
			<polyline fill="none" stroke="#000000" stroke-width="0.72" stroke-linecap="round" stroke-linejoin="round" stroke-miterlimit="10" points="
			8.57,14.953 8.87,14.893 9.11,14.652 9.169,14.353 		"/>
		
			<line fill="none" stroke="#000000" stroke-width="0.72" stroke-linecap="round" stroke-linejoin="round" stroke-miterlimit="10" x1="13.31" y1="35.172" x2="10.61" y2="35.172"/>
		
			<line fill="none" stroke="#000000" stroke-width="0.72" stroke-linecap="round" stroke-linejoin="round" stroke-miterlimit="10" x1="13.31" y1="12.732" x2="10.61" y2="12.732"/>
		
			<polyline fill="none" stroke="#000000" stroke-width="0.72" stroke-linecap="round" stroke-linejoin="round" stroke-miterlimit="10" points="
			10.61,12.732 10.07,12.792 9.589,13.152 9.29,13.572 9.169,14.172 9.169,14.353 		"/>
		
			<line fill="none" stroke="#000000" stroke-width="0.72" stroke-linecap="round" stroke-linejoin="round" stroke-miterlimit="10" x1="11.15" y1="28.572" x2="15.11" y2="28.572"/>
		
			<polyline fill="none" stroke="#000000" stroke-width="0.72" stroke-linecap="round" stroke-linejoin="round" stroke-miterlimit="10" points="
			15.11,28.572 15.11,19.272 11.15,19.272 		"/>
	</g>
	<g>
		<path d="M149.897,2c2.023,0,3.67,1.646,3.67,3.669v72.567c0,2.023-1.646,3.669-3.67,3.669H8.59c-2.023,0-3.67-1.646-3.67-3.669
			V5.669C4.92,3.646,6.567,2,8.59,2H149.897 M149.897,0H8.59C5.459,0,2.92,2.538,2.92,5.669v72.567c0,3.131,2.539,5.669,5.67,5.669
			h141.307c3.131,0,5.67-2.538,5.67-5.669V5.669C155.567,2.538,153.028,0,149.897,0L149.897,0z"/>
	</g>
</g>
</svg>
