<?xml version="1.0" encoding="utf-8"?>
<!-- Generator: Adobe Illustrator 15.1.0, SVG Export Plug-In . SVG Version: 6.00 Build 0)  -->
<!DOCTYPE svg PUBLIC "-//W3C//DTD SVG 1.1//EN" "http://www.w3.org/Graphics/SVG/1.1/DTD/svg11.dtd">
<svg version="1.1" id="Layer_1" xmlns="http://www.w3.org/2000/svg" xmlns:xlink="http://www.w3.org/1999/xlink" x="0px" y="0px"
	 width="38.645px" height="74.307px" viewBox="0 0 38.645 74.307" enable-background="new 0 0 38.645 74.307" xml:space="preserve">
<g id="drills">
	
		<circle id="gnd" fill="none" stroke="#000000" stroke-width="0.001" stroke-linecap="round" stroke-linejoin="round" stroke-miterlimit="10" cx="19.285" cy="18.855" r="3.09"/>
	
		<circle id="vcc" fill="none" stroke="#000000" stroke-width="0.001" stroke-linecap="round" stroke-linejoin="round" stroke-miterlimit="10" cx="19.285" cy="54.855" r="3.09"/>
</g>
<g id="outline">
	<path fill="none" stroke="#000000" stroke-linecap="round" stroke-linejoin="round" stroke-miterlimit="10" d="M23.785,36.868
		c-0.166-2.217-1.569-4.115-3.864-4.464c-2.174-0.331-4.33,1.101-4.944,3.192c-0.623,2.119,0.434,4.447,2.448,5.353
		c2.012,0.904,4.444,0.206,5.64-1.656C23.544,38.547,23.72,37.74,23.785,36.868L23.785,36.868z"/>
	<path fill="none" stroke="#000000" stroke-linecap="round" stroke-linejoin="round" stroke-miterlimit="10" d="M30.53,54.87
		c-0.207-4.42-2.558-8.451-6.708-10.261c-3.991-1.741-8.892-1.057-12.109,1.956c-3.213,3.01-4.504,7.678-3.072,11.869
		c1.42,4.157,5.206,7.215,9.601,7.621c3.097,0.286,6.321-0.77,8.617-2.88C29.229,60.995,30.381,58.036,30.53,54.87L30.53,54.87z"/>
	<path fill="none" stroke="#000000" stroke-linecap="round" stroke-linejoin="round" stroke-miterlimit="10" d="M23.954,18.867
		c-0.077-2.113-1.29-3.771-3.295-4.466c-2.029-0.702-4.056,0.284-5.292,1.883c-1.252,1.62-0.859,3.983,0.272,5.512
		c1.284,1.736,3.63,2.069,5.532,1.336C22.924,22.458,23.889,20.659,23.954,18.867L23.954,18.867z"/>
	<g>
		<path d="M19.328,2c0.805,0,1.634,0.044,2.464,0.132c7.151,0.755,13.826,7.441,14.577,14.6c0.12,1.138,0.178,2.302,0.178,3.561
			c0,0.088,0.006,0.349,0.017,0.708c0.027,1.008,0.044,1.816,0.05,2.42l-2.932,0.615c-0.019,0.004-0.096,0.017-0.276,0.017
			c-0.201,0-0.407-0.014-0.609-0.026c-0.273-0.017-0.54-0.032-0.788-0.032h-2.271c-0.718,0-1.38,0.385-1.737,1.008l-0.192,0.336
			c-0.172,0.302-0.263,0.644-0.263,0.992v3.394c0,2.019,1.755,2.019,3.613,2.019l1.581-0.003l0.28-0.001
			c0.724,0,1.316,0.097,2.224,0.287c0.056,0.012,0.21,0.04,0.425,0.078c0.33,0.058,0.623,0.11,0.878,0.158v12.906
			c0,1.169,0.025,2.36,0.049,3.512c0.063,2.964,0.127,6.03-0.238,8.904c-0.48,3.772-2.434,7.487-5.36,10.193
			c-3.158,2.92-7.321,4.529-11.72,4.529c-3.645,0-7.115-1.097-10.035-3.172c-3.174-2.255-5.504-5.558-6.562-9.301
			C2.232,58.25,2.023,56.5,2.023,54.325v-4.036c0.225-0.058,0.448-0.119,0.667-0.179c0.659-0.181,1.34-0.369,1.808-0.369h3.72
			l0.028,0.003c0.151,0.015,0.327,0.029,0.486,0.029c1.488,0,2.291-1.104,2.291-2.144v-2.05V44.01c0-0.753-0.333-2.017-2.562-2.017
			c-0.228,0-0.466,0.002-0.597,0.003l-0.075,0c-0.396,0-0.795,0.023-1.182,0.046c-0.369,0.022-0.717,0.042-1.041,0.042
			c-0.297,0-0.537-0.019-0.712-0.055l-0.084-0.018l-2.748-0.576v-1.697V21.862c0-0.372-0.006-0.748-0.012-1.125
			c-0.016-0.984-0.031-1.914,0.062-2.787c0.207-1.968,0.666-3.801,1.446-5.77c1.223-3.088,3.739-5.815,7.479-8.104
			C13.216,2.717,16.097,2,19.328,2 M19.328,0c-3.261,0-6.583,0.662-9.374,2.369C6.428,4.528,3.217,7.511,1.66,11.443
			c-0.82,2.069-1.343,4.082-1.576,6.297c-0.143,1.353-0.061,2.764-0.061,4.122c0,5.959,0,11.919,0,17.879c0,0.906,0,1.811,0,2.717
			c0,0.641-0.075,0.588,0.593,0.729c1.276,0.267,2.553,0.535,3.829,0.802c0.351,0.074,0.731,0.098,1.122,0.098
			c0.749,0,1.535-0.089,2.222-0.089c0.043,0,0.367-0.004,0.672-0.004c0.29,0,0.562,0.003,0.562,0.017c0,0.523,0,1.046,0,1.569
			c0,0.683,0,1.367,0,2.05c0,0.115-0.133,0.144-0.291,0.144c-0.166,0-0.358-0.032-0.455-0.032c-1.26,0-2.52,0-3.78,0
			c-1.092,0-2.361,0.493-3.429,0.717c-0.109,0.023-1.046,0.149-1.046,0.254c0,0.456,0,0.911,0,1.366c0,1.415,0,2.83,0,4.246
			c0,2.062,0.168,4.061,0.732,6.054c1.177,4.164,3.801,7.88,7.329,10.387c3.335,2.371,7.27,3.542,11.193,3.542
			c4.731,0,9.447-1.703,13.078-5.061c3.205-2.963,5.432-7.059,5.986-11.409c0.53-4.164,0.205-8.484,0.205-12.668
			c0-4.82,0-9.64,0-14.459c0-0.16-2.639-0.587-2.893-0.64c-0.93-0.195-1.692-0.329-2.634-0.329c-0.138,0-1.02,0.004-1.861,0.004
			c-0.826,0-1.613-0.004-1.613-0.019c0-1.131,0-2.262,0-3.394l0.192-0.336c0.757,0,1.514,0,2.271,0c0.429,0,0.925,0.058,1.396,0.058
			c0.24,0,0.473-0.015,0.688-0.06c1.481-0.311,2.962-0.621,4.443-0.932c0.173-0.037,0.011-4.366,0.011-4.77
			c0-1.266-0.056-2.509-0.188-3.77c-0.854-8.14-8.206-15.519-16.356-16.38C21.123,0.05,20.228,0,19.328,0L19.328,0z"/>
	</g>
	
		<line fill="none" stroke="#000000" stroke-linecap="round" stroke-linejoin="round" stroke-miterlimit="10" x1="30.817" y1="14.211" x2="27.385" y2="14.211"/>
	<polyline fill="none" stroke="#000000" stroke-linecap="round" stroke-linejoin="round" stroke-miterlimit="10" points="
		23.929,7.347 23.929,10.755 22.465,11.234 	"/>
	
		<line fill="none" stroke="#000000" stroke-linecap="round" stroke-linejoin="round" stroke-miterlimit="10" x1="27.385" y1="14.211" x2="26.905" y2="15.675"/>
	<polyline fill="none" stroke="#000000" stroke-linecap="round" stroke-linejoin="round" stroke-miterlimit="10" points="
		26.977,15.459 26.593,14.667 26.113,13.923 25.537,13.227 24.913,12.603 24.241,12.051 23.497,11.571 22.705,11.163 	"/>
	
		<line fill="none" stroke="#000000" stroke-linecap="round" stroke-linejoin="round" stroke-miterlimit="10" x1="30.817" y1="23.5" x2="27.385" y2="23.5"/>
	<polyline fill="none" stroke="#000000" stroke-linecap="round" stroke-linejoin="round" stroke-miterlimit="10" points="
		23.929,30.389 23.929,26.98 22.465,26.5 	"/>
	
		<line fill="none" stroke="#000000" stroke-linecap="round" stroke-linejoin="round" stroke-miterlimit="10" x1="27.385" y1="23.5" x2="26.905" y2="22.06"/>
	<polyline fill="none" stroke="#000000" stroke-linecap="round" stroke-linejoin="round" stroke-miterlimit="10" points="
		22.705,26.572 23.497,26.164 24.241,25.684 24.913,25.132 25.537,24.508 26.113,23.812 26.593,23.067 26.977,22.275 	"/>
	
		<line fill="none" stroke="#000000" stroke-linecap="round" stroke-linejoin="round" stroke-miterlimit="10" x1="30.817" y1="23.5" x2="30.817" y2="14.211"/>
	
		<line fill="none" stroke="#000000" stroke-linecap="round" stroke-linejoin="round" stroke-miterlimit="10" x1="26.905" y1="15.675" x2="26.905" y2="22.06"/>
	
		<line fill="none" stroke="#000000" stroke-linecap="round" stroke-linejoin="round" stroke-miterlimit="10" x1="14.641" y1="7.347" x2="14.641" y2="10.755"/>
	
		<line fill="none" stroke="#000000" stroke-linecap="round" stroke-linejoin="round" stroke-miterlimit="10" x1="11.184" y1="14.211" x2="11.64" y2="15.675"/>
	<polyline fill="none" stroke="#000000" stroke-linecap="round" stroke-linejoin="round" stroke-miterlimit="10" points="
		15.865,11.163 15.073,11.571 14.329,12.051 13.656,12.603 13.032,13.227 12.457,13.923 11.976,14.667 11.568,15.459 	"/>
	
		<line fill="none" stroke="#000000" stroke-linecap="round" stroke-linejoin="round" stroke-miterlimit="10" x1="14.641" y1="10.755" x2="16.104" y2="11.234"/>
	
		<line fill="none" stroke="#000000" stroke-linecap="round" stroke-linejoin="round" stroke-miterlimit="10" x1="11.184" y1="23.5" x2="11.64" y2="22.06"/>
	
		<line fill="none" stroke="#000000" stroke-linecap="round" stroke-linejoin="round" stroke-miterlimit="10" x1="14.641" y1="30.389" x2="14.641" y2="26.98"/>
	<polyline fill="none" stroke="#000000" stroke-linecap="round" stroke-linejoin="round" stroke-miterlimit="10" points="
		11.568,22.275 11.976,23.067 12.457,23.812 13.032,24.508 13.656,25.132 14.329,25.684 15.073,26.164 15.865,26.572 	"/>
	
		<line fill="none" stroke="#000000" stroke-linecap="round" stroke-linejoin="round" stroke-miterlimit="10" x1="14.641" y1="26.98" x2="16.104" y2="26.5"/>
	
		<line fill="none" stroke="#000000" stroke-linecap="round" stroke-linejoin="round" stroke-miterlimit="10" x1="11.64" y1="22.06" x2="11.64" y2="15.675"/>
	
		<line fill="none" stroke="#000000" stroke-linecap="round" stroke-linejoin="round" stroke-miterlimit="10" x1="7.752" y1="23.5" x2="7.752" y2="14.211"/>
	
		<line fill="none" stroke="#000000" stroke-linecap="round" stroke-linejoin="round" stroke-miterlimit="10" x1="7.752" y1="14.211" x2="11.184" y2="14.211"/>
	
		<line fill="none" stroke="#000000" stroke-linecap="round" stroke-linejoin="round" stroke-miterlimit="10" x1="7.752" y1="23.5" x2="11.184" y2="23.5"/>
	
		<line fill="none" stroke="#000000" stroke-linecap="round" stroke-linejoin="round" stroke-miterlimit="10" x1="23.929" y1="30.389" x2="14.641" y2="30.389"/>
	
		<line fill="none" stroke="#000000" stroke-linecap="round" stroke-linejoin="round" stroke-miterlimit="10" x1="23.929" y1="7.347" x2="14.641" y2="7.347"/>
	
		<line fill="none" stroke="#000000" stroke-linecap="round" stroke-linejoin="round" stroke-miterlimit="10" x1="16.104" y1="11.234" x2="22.465" y2="11.234"/>
	
		<line fill="none" stroke="#000000" stroke-linecap="round" stroke-linejoin="round" stroke-miterlimit="10" x1="22.465" y1="26.5" x2="16.104" y2="26.5"/>
	<path fill="none" stroke="#000000" stroke-linecap="round" stroke-linejoin="round" stroke-miterlimit="10" d="M23.954,54.87
		c-0.162-4.465-6.085-6.47-8.617-2.521c-2.405,3.751,1.803,8.885,5.925,6.746C22.932,58.228,23.885,56.753,23.954,54.87
		L23.954,54.87z"/>
</g>
</svg>
