<?xml version="1.0" encoding="utf-8"?>
<!-- Generator: Adobe Illustrator 15.1.0, SVG Export Plug-In . SVG Version: 6.00 Build 0)  -->
<!DOCTYPE svg PUBLIC "-//W3C//DTD SVG 1.1//EN" "http://www.w3.org/Graphics/SVG/1.1/DTD/svg11.dtd">
<svg version="1.1" id="Layer_1" xmlns="http://www.w3.org/2000/svg" xmlns:xlink="http://www.w3.org/1999/xlink" x="0px" y="0px"
	 width="31.691px" height="13.323px" viewBox="0 0 31.691 13.323" enable-background="new 0 0 31.691 13.323" xml:space="preserve">
<g id="drills">
	<circle fill="none" stroke="#231F20" stroke-width="0.001" stroke-miterlimit="10" cx="8.929" cy="6.661" r="1.417"/>
	<circle fill="none" stroke="#231F20" stroke-width="0.001" stroke-miterlimit="10" cx="22.762" cy="6.661" r="1.417"/>
</g>
<g id="outline">
	<g>
		<path fill="#231F20" d="M25.03,2c2.57,0,4.661,2.091,4.661,4.661s-2.091,4.662-4.661,4.662H6.661C4.091,11.323,2,9.231,2,6.661
			S4.091,2,6.661,2H25.03 M25.03,0H6.661C2.982,0,0,2.982,0,6.661c0,3.679,2.982,6.662,6.661,6.662H25.03
			c3.679,0,6.661-2.982,6.661-6.662C31.691,2.982,28.709,0,25.03,0L25.03,0z"/>
	</g>
</g>
</svg>
