<?xml version="1.0" encoding="utf-8"?>
<!-- Generator: Adobe Illustrator 15.1.0, SVG Export Plug-In . SVG Version: 6.00 Build 0)  -->
<!DOCTYPE svg PUBLIC "-//W3C//DTD SVG 1.1//EN" "http://www.w3.org/Graphics/SVG/1.1/DTD/svg11.dtd">
<svg version="1.1" id="Layer_1" xmlns="http://www.w3.org/2000/svg" xmlns:xlink="http://www.w3.org/1999/xlink" x="0px" y="0px"
	 width="55.327px" height="25.336px" viewBox="0 0 55.327 25.336" enable-background="new 0 0 55.327 25.336" xml:space="preserve">
<g id="drills">
	<circle id="pin16" fill="none" stroke="#231F20" stroke-width="0.001" stroke-miterlimit="10" cx="2.339" cy="1.418" r="1.417"/>
	<circle id="pin15" fill="none" stroke="#231F20" stroke-width="0.001" stroke-miterlimit="10" cx="9.539" cy="1.418" r="1.417"/>
	<circle id="pin14" fill="none" stroke="#231F20" stroke-width="0.001" stroke-miterlimit="10" cx="16.739" cy="1.418" r="1.417"/>
	<circle id="pin13" fill="none" stroke="#231F20" stroke-width="0.001" stroke-miterlimit="10" cx="23.939" cy="1.418" r="1.417"/>
	<circle id="pin12" fill="none" stroke="#231F20" stroke-width="0.001" stroke-miterlimit="10" cx="31.14" cy="1.418" r="1.417"/>
	<circle id="pin11" fill="none" stroke="#231F20" stroke-width="0.001" stroke-miterlimit="10" cx="38.34" cy="1.418" r="1.417"/>
	<circle id="pin10" fill="none" stroke="#231F20" stroke-width="0.001" stroke-miterlimit="10" cx="45.54" cy="1.418" r="1.417"/>
	<circle id="pin9" fill="none" stroke="#231F20" stroke-width="0.001" stroke-miterlimit="10" cx="52.74" cy="1.418" r="1.417"/>
	<circle id="pin8" fill="none" stroke="#231F20" stroke-width="0.001" stroke-miterlimit="10" cx="52.74" cy="23.918" r="1.417"/>
	<circle id="pin7" fill="none" stroke="#231F20" stroke-width="0.001" stroke-miterlimit="10" cx="45.54" cy="23.918" r="1.417"/>
	<circle id="pin6" fill="none" stroke="#231F20" stroke-width="0.001" stroke-miterlimit="10" cx="38.34" cy="23.918" r="1.417"/>
	<circle id="pin5" fill="none" stroke="#231F20" stroke-width="0.001" stroke-miterlimit="10" cx="31.14" cy="23.918" r="1.417"/>
	<circle id="pin4" fill="none" stroke="#231F20" stroke-width="0.001" stroke-miterlimit="10" cx="23.939" cy="23.918" r="1.417"/>
	<circle id="pin3" fill="none" stroke="#231F20" stroke-width="0.001" stroke-miterlimit="10" cx="16.739" cy="23.918" r="1.417"/>
	<circle id="pin2" fill="none" stroke="#231F20" stroke-width="0.001" stroke-miterlimit="10" cx="9.539" cy="23.918" r="1.417"/>
	<circle id="pin1" fill="none" stroke="#231F20" stroke-width="0.001" stroke-miterlimit="10" cx="2.339" cy="23.918" r="1.417"/>
</g>
<g id="outline">
	<g>
		<path fill="#231F20" d="M53.327,4.318v16.7H2v-4.222c1.53-0.744,2.587-2.315,2.587-4.128S3.53,9.284,2,8.54V4.318H53.327
			 M55.327,2.318H0v7.763c1.429,0,2.587,1.158,2.587,2.587S1.429,15.255,0,15.255v7.763h55.327V2.318L55.327,2.318z"/>
	</g>
</g>
</svg>
