<?xml version="1.0" encoding="utf-8"?>
<!-- Generator: Adobe Illustrator 15.1.0, SVG Export Plug-In . SVG Version: 6.00 Build 0)  -->
<!DOCTYPE svg PUBLIC "-//W3C//DTD SVG 1.1//EN" "http://www.w3.org/Graphics/SVG/1.1/DTD/svg11.dtd">
<svg version="1.1" id="Layer_1" xmlns="http://www.w3.org/2000/svg" xmlns:xlink="http://www.w3.org/1999/xlink" x="0px" y="0px"
	 width="14.4px" height="7.2px" viewBox="0 0 14.4 7.2" enable-background="new 0 0 14.4 7.2" xml:space="preserve">
<g id="drills">
	<circle fill="none" stroke="#231F20" stroke-width="0.001" stroke-miterlimit="10" cx="3.6" cy="3.6" r="1.417"/>
	<circle fill="none" stroke="#231F20" stroke-width="0.001" stroke-miterlimit="10" cx="10.8" cy="3.6" r="1.417"/>
</g>
<g id="outline">
	<g>
		<path d="M11.463,2L12.4,2.938v1.325L11.463,5.2h-1.326L9.2,4.263V2.938L10.137,2H11.463 M12.292,0H9.309L7.2,2.109v2.981
			L9.309,7.2h2.983L14.4,5.091V2.109L12.292,0L12.292,0z"/>
	</g>
	<g>
		<path d="M4.263,2L5.2,2.938v1.325L4.263,5.2H2.937L2,4.263V2.938L2.937,2H4.263 M5.091,0H2.108L0,2.109v2.981L2.108,7.2h2.983
			L7.2,5.091V2.109L5.091,0L5.091,0z"/>
	</g>
</g>
</svg>
