<?xml version="1.0" encoding="utf-8"?>
<!-- Generator: Adobe Illustrator 15.1.0, SVG Export Plug-In . SVG Version: 6.00 Build 0)  -->
<!DOCTYPE svg PUBLIC "-//W3C//DTD SVG 1.1//EN" "http://www.w3.org/Graphics/SVG/1.1/DTD/svg11.dtd">
<svg version="1.1" id="Layer_1" xmlns="http://www.w3.org/2000/svg" xmlns:xlink="http://www.w3.org/1999/xlink" x="0px" y="0px"
	 width="15.307px" height="16.441px" viewBox="0 0 15.307 16.441" enable-background="new 0 0 15.307 16.441" xml:space="preserve">
<g id="drills">
	<circle fill="none" stroke="#231F20" stroke-width="0.001" stroke-miterlimit="10" cx="4.054" cy="8.221" r="1.417"/>
	<circle fill="none" stroke="#231F20" stroke-width="0.001" stroke-miterlimit="10" cx="11.254" cy="8.221" r="1.417"/>
</g>
<g id="outline">
	<g>
		<path fill="#231F20" d="M8.221,2c2.021,0,3.927,1.005,5.086,2.653v7.135c-1.16,1.648-3.065,2.653-5.086,2.653
			C4.791,14.441,2,11.651,2,8.221S4.791,2,8.221,2 M8.221,0C3.681,0,0,3.681,0,8.221s3.681,8.221,8.221,8.221
			c3.023,0,5.658-1.637,7.086-4.068V4.068C13.879,1.637,11.244,0,8.221,0L8.221,0z"/>
	</g>
</g>
</svg>
